# Blender v2.79 (sub 0) OBJ File: 'alphanumeric_BASE.blend'
# www.blender.org
mtllib 4.mtl
o Text_Aasdf
v -0.221000 0.312000 -0.133000
v -0.221000 0.224000 -0.133000
v -0.148000 0.224000 -0.133000
v -0.148000 -0.000000 -0.133000
v -0.050000 -0.000000 -0.133000
v -0.050000 0.224000 -0.133000
v 0.239000 0.224000 -0.133000
v 0.239000 0.269000 -0.133000
v -0.106000 0.691000 -0.133000
v -0.148000 0.691000 -0.133000
v -0.148000 0.312000 -0.133000
v -0.050000 0.312000 -0.133000
v -0.050000 0.506000 -0.133000
v -0.048000 0.506000 -0.133000
v 0.108000 0.312000 -0.133000
v -0.221000 0.312000 0.133000
v -0.221000 0.224000 0.133000
v -0.148000 0.224000 0.133000
v -0.148000 0.000000 0.133000
v -0.050000 0.000000 0.133000
v -0.050000 0.224000 0.133000
v 0.239000 0.224000 0.133000
v 0.239000 0.269000 0.133000
v -0.106000 0.691000 0.133000
v -0.148000 0.691000 0.133000
v -0.148000 0.312000 0.133000
v -0.050000 0.312000 0.133000
v -0.050000 0.506000 0.133000
v -0.048000 0.506000 0.133000
v 0.108000 0.312000 0.133000
v -0.221000 0.312000 0.133000
v -0.233728 0.324728 0.127728
v -0.239000 0.330000 0.115000
v -0.221000 0.224000 0.133000
v -0.233728 0.211272 0.127728
v -0.239000 0.206000 0.115000
v -0.148000 0.224000 0.133000
v -0.160728 0.211272 0.127728
v -0.166000 0.206000 0.115000
v -0.148000 0.000000 0.133000
v -0.160728 -0.012728 0.127728
v -0.166000 -0.018000 0.115000
v -0.050000 0.000000 0.133000
v -0.037272 -0.012728 0.127728
v -0.032000 -0.018000 0.115000
v -0.050000 0.224000 0.133000
v -0.037272 0.211272 0.127728
v -0.032000 0.206000 0.115000
v 0.239000 0.224000 0.133000
v 0.251728 0.211272 0.127728
v 0.257000 0.206000 0.115000
v 0.239000 0.269000 0.133000
v 0.251728 0.273541 0.127728
v 0.257000 0.275421 0.115000
v -0.106000 0.691000 0.133000
v -0.099965 0.703728 0.127728
v -0.097466 0.709000 0.115000
v -0.148000 0.691000 0.133000
v -0.160728 0.703728 0.127728
v -0.166000 0.709000 0.115000
v -0.148000 0.312000 0.133000
v -0.160728 0.324728 0.127728
v -0.166000 0.330000 0.115000
v -0.239000 0.330000 0.115000
v -0.239000 0.330000 -0.115000
v -0.239000 0.206000 0.115000
v -0.239000 0.206000 -0.115000
v -0.166000 0.206000 0.115000
v -0.166000 0.206000 -0.115000
v -0.166000 -0.018000 0.115000
v -0.166000 -0.018000 -0.115000
v -0.032000 -0.018000 0.115000
v -0.032000 -0.018000 -0.115000
v -0.032000 0.206000 0.115000
v -0.032000 0.206000 -0.115000
v 0.257000 0.206000 0.115000
v 0.257000 0.206000 -0.115000
v 0.257000 0.275421 0.115000
v 0.257000 0.275421 -0.115000
v -0.097466 0.709000 0.115000
v -0.097466 0.709000 -0.115000
v -0.166000 0.709000 0.115000
v -0.166000 0.709000 -0.115000
v -0.166000 0.330000 0.115000
v -0.166000 0.330000 -0.115000
v -0.239000 0.330000 -0.115000
v -0.233728 0.324728 -0.127728
v -0.221000 0.312000 -0.133000
v -0.239000 0.206000 -0.115000
v -0.233728 0.211272 -0.127728
v -0.221000 0.224000 -0.133000
v -0.166000 0.206000 -0.115000
v -0.160728 0.211272 -0.127728
v -0.148000 0.224000 -0.133000
v -0.166000 -0.018000 -0.115000
v -0.160728 -0.012728 -0.127728
v -0.148000 -0.000000 -0.133000
v -0.032000 -0.018000 -0.115000
v -0.037272 -0.012728 -0.127728
v -0.050000 -0.000000 -0.133000
v -0.032000 0.206000 -0.115000
v -0.037272 0.211272 -0.127728
v -0.050000 0.224000 -0.133000
v 0.257000 0.206000 -0.115000
v 0.251728 0.211272 -0.127728
v 0.239000 0.224000 -0.133000
v 0.257000 0.275421 -0.115000
v 0.251728 0.273541 -0.127728
v 0.239000 0.269000 -0.133000
v -0.097466 0.709000 -0.115000
v -0.099966 0.703728 -0.127728
v -0.106000 0.691000 -0.133000
v -0.166000 0.709000 -0.115000
v -0.160728 0.703728 -0.127728
v -0.148000 0.691000 -0.133000
v -0.166000 0.330000 -0.115000
v -0.160728 0.324728 -0.127728
v -0.148000 0.312000 -0.133000
v -0.050000 0.312000 0.133000
v -0.037272 0.324728 0.127728
v -0.032000 0.330000 0.115000
v -0.050000 0.506000 0.133000
v -0.037272 0.493272 0.127728
v -0.032000 0.488000 0.115000
v -0.048000 0.506000 0.133000
v -0.054098 0.493272 0.127728
v -0.056623 0.488000 0.115000
v 0.108000 0.312000 0.133000
v 0.081433 0.324728 0.127728
v 0.070428 0.330000 0.115000
v -0.032000 0.330000 0.115000
v -0.032000 0.330000 -0.115000
v -0.032000 0.488000 0.115000
v -0.032000 0.488000 -0.115000
v -0.056623 0.488000 0.115000
v -0.056624 0.488000 -0.115000
v 0.070428 0.330000 0.115000
v 0.070428 0.330000 -0.115000
v -0.032000 0.330000 -0.115000
v -0.037272 0.324728 -0.127728
v -0.050000 0.312000 -0.133000
v -0.032000 0.488000 -0.115000
v -0.037272 0.493272 -0.127728
v -0.050000 0.506000 -0.133000
v -0.056624 0.488000 -0.115000
v -0.054098 0.493272 -0.127728
v -0.048000 0.506000 -0.133000
v 0.070428 0.330000 -0.115000
v 0.081433 0.324728 -0.127728
v 0.108000 0.312000 -0.133000
vn -0.0000 -0.0000 -1.0000
vn 0.0000 1.0000 0.0000
vn 0.0000 -1.0000 0.0000
vn 0.0000 0.0000 1.0000
vn 0.0000 0.4357 -0.9001
vn -0.4975 0.4975 0.7106
vn -0.4975 -0.4975 0.7106
vn -0.1987 -0.1987 0.9597
vn -0.1987 0.1987 0.9597
vn -0.6101 0.6101 0.5054
vn -0.6101 -0.6101 0.5054
vn -0.3377 -0.3377 0.8786
vn 0.4975 -0.4975 0.7106
vn 0.1987 -0.1987 0.9597
vn 0.6101 -0.6101 0.5054
vn 0.3377 -0.3377 0.8786
vn 0.6880 0.2454 0.6829
vn 0.3423 0.1221 0.9316
vn 0.8621 0.3076 0.4026
vn 0.3130 0.6602 0.6828
vn 0.1502 0.3167 0.9365
vn 0.3894 0.8214 0.4167
vn -0.3377 0.3377 0.8786
vn -0.7071 0.7071 0.0000
vn -0.7071 -0.7071 0.0000
vn 0.7071 -0.7071 0.0000
vn 0.9418 0.3360 0.0000
vn 0.4284 0.9036 0.0000
vn -0.4975 0.4975 -0.7106
vn -0.4975 -0.4975 -0.7106
vn -0.6101 -0.6101 -0.5054
vn -0.6101 0.6101 -0.5054
vn -0.1987 0.1987 -0.9597
vn -0.1987 -0.1987 -0.9597
vn -0.3377 -0.3377 -0.8786
vn 0.4975 -0.4975 -0.7106
vn 0.6101 -0.6101 -0.5054
vn 0.1987 -0.1987 -0.9597
vn 0.3377 -0.3377 -0.8786
vn 0.6880 0.2454 -0.6829
vn 0.8621 0.3076 -0.4026
vn 0.3423 0.1221 -0.9316
vn 0.3130 0.6602 -0.6828
vn 0.3894 0.8214 -0.4167
vn 0.1502 0.3167 -0.9365
vn -0.3377 0.3377 -0.8786
vn 0.3377 0.3377 0.8786
vn 0.6443 0.6780 0.3538
vn 0.7071 0.7071 0.0000
vn 0.1987 0.1987 0.9597
vn 0.6101 0.6101 0.5054
vn 0.8415 0.5239 0.1316
vn -0.8463 0.4140 0.3353
vn -0.9018 0.4321 0.0000
vn -0.9724 0.2076 0.1070
vn -0.2470 0.1183 0.9618
vn -0.1588 0.0761 0.9843
vn -0.6510 0.3119 0.6920
vn 0.3377 0.3377 -0.8786
vn 0.6443 0.6780 -0.3538
vn 0.8415 0.5239 -0.1316
vn 0.6101 0.6101 -0.5054
vn 0.1987 0.1987 -0.9597
vn -0.8463 0.4140 -0.3353
vn -0.9724 0.2076 -0.1070
vn -0.2470 0.1183 -0.9618
vn -0.6510 0.3119 -0.6920
vn -0.1588 0.0761 -0.9843
usemtl None
s off
f 8//1 10//1 9//1
f 8//1 14//1 10//1
f 14//1 13//1 10//1
f 13//1 11//1 10//1
f 8//1 15//1 14//1
f 12//1 11//1 13//1
f 8//1 12//1 15//1
f 8//1 11//1 12//1
f 8//1 1//1 11//1
f 8//1 2//1 1//1
f 7//1 2//1 8//1
f 6//2 2//2 7//2
f 5//1 3//1 6//1
f 3//3 2//3 6//3
f 5//1 4//1 3//1
f 25//4 23//4 24//4
f 29//4 23//4 25//4
f 28//4 29//4 25//4
f 26//4 28//4 25//4
f 30//4 23//4 29//4
f 26//4 27//4 28//4
f 27//4 23//4 30//4
f 26//4 23//4 27//4
f 16//4 23//4 26//4
f 17//4 23//4 16//4
f 17//4 22//4 23//4
f 17//3 21//3 22//3
f 18//4 20//4 21//4
f 17//5 18//5 21//5
f 19//4 20//4 18//4
s 1
f 32//6 35//7 34//8 31//9
f 33//10 36//11 35//7 32//6
f 35//7 38//12 37//8 34//8
f 36//11 39//11 38//12 35//7
f 38//12 41//7 40//8 37//8
f 39//11 42//11 41//7 38//12
f 41//7 44//13 43//14 40//8
f 42//11 45//15 44//13 41//7
f 44//13 47//16 46//14 43//14
f 45//15 48//15 47//16 44//13
f 47//16 50//13 49//14 46//14
f 48//15 51//15 50//13 47//16
f 50//13 53//17 52//18 49//14
f 51//15 54//19 53//17 50//13
f 53//17 56//20 55//21 52//18
f 54//19 57//22 56//20 53//17
f 56//20 59//6 58//9 55//21
f 57//22 60//10 59//6 56//20
f 59//6 62//23 61//9 58//9
f 60//10 63//10 62//23 59//6
f 62//23 32//6 31//9 61//9
f 63//10 33//10 32//6 62//23
f 65//24 67//25 66//25 64//24
f 67//25 69//25 68//25 66//25
f 69//25 71//25 70//25 68//25
f 71//25 73//26 72//26 70//25
f 73//26 75//26 74//26 72//26
f 75//26 77//26 76//26 74//26
f 77//26 79//27 78//27 76//26
f 79//27 81//28 80//28 78//27
f 81//28 83//24 82//24 80//28
f 83//24 85//24 84//24 82//24
f 85//24 65//24 64//24 84//24
f 87//29 90//30 89//31 86//32
f 88//33 91//34 90//30 87//29
f 90//30 93//35 92//31 89//31
f 91//34 94//34 93//35 90//30
f 93//35 96//30 95//31 92//31
f 94//34 97//34 96//30 93//35
f 96//30 99//36 98//37 95//31
f 97//34 100//38 99//36 96//30
f 99//36 102//39 101//37 98//37
f 100//38 103//38 102//39 99//36
f 102//39 105//36 104//37 101//37
f 103//38 106//38 105//36 102//39
f 105//36 108//40 107//41 104//37
f 106//38 109//42 108//40 105//36
f 108//40 111//43 110//44 107//41
f 109//42 112//45 111//43 108//40
f 111//43 114//29 113//32 110//44
f 112//45 115//33 114//29 111//43
f 114//29 117//46 116//32 113//32
f 115//33 118//33 117//46 114//29
f 117//46 87//29 86//32 116//32
f 118//33 88//33 87//29 117//46
f 120//47 123//48 122//49 119//50
f 121//51 124//52 123//48 120//47
f 123//48 126//53 125//54 122//49
f 124//52 127//55 126//53 123//48
f 126//53 129//56 128//57 125//54
f 127//55 130//58 129//56 126//53
f 129//56 120//47 119//50 128//57
f 130//58 121//51 120//47 129//56
f 132//49 134//49 133//49 131//49
f 134//49 136//54 135//54 133//49
f 136//54 138//54 137//54 135//54
f 138//54 132//49 131//49 137//54
f 140//59 143//60 142//61 139//62
f 141//63 144//49 143//60 140//59
f 143//60 146//64 145//65 142//61
f 144//49 147//54 146//64 143//60
f 146//64 149//66 148//67 145//65
f 147//54 150//68 149//66 146//64
f 149//66 140//59 139//62 148//67
f 150//68 141//63 140//59 149//66
