# Blender v2.79 (sub 0) OBJ File: 'alphanumeric_BASE.blend'
# www.blender.org
mtllib 7.mtl
o Text_Aasdf
v 0.156000 0.029000 -0.133000
v -0.094000 0.589000 -0.133000
v 0.201000 0.589000 -0.133000
v 0.201000 0.682000 -0.133000
v -0.240000 0.682000 -0.133000
v 0.069000 -0.009000 -0.133000
v 0.156000 0.029000 0.133000
v -0.094000 0.589000 0.133000
v 0.201000 0.589000 0.133000
v 0.201000 0.682000 0.133000
v -0.240000 0.682000 0.133000
v 0.069000 -0.009000 0.133000
v 0.156000 0.029000 0.133000
v 0.172853 0.022472 0.127728
v 0.179834 0.019768 0.115000
v -0.094000 0.589000 0.133000
v -0.074379 0.576272 0.127728
v -0.066252 0.571000 0.115000
v 0.201000 0.589000 0.133000
v 0.213728 0.576272 0.127728
v 0.219000 0.571000 0.115000
v 0.201000 0.682000 0.133000
v 0.213728 0.694728 0.127728
v 0.219000 0.700000 0.115000
v -0.240000 0.682000 0.133000
v -0.259634 0.694728 0.127728
v -0.267767 0.700000 0.115000
v 0.069000 -0.009000 0.133000
v 0.062532 -0.025714 0.127728
v 0.059852 -0.032638 0.115000
v 0.179834 0.019768 0.115000
v 0.179834 0.019768 -0.115000
v -0.066252 0.571000 0.115000
v -0.066252 0.571000 -0.115000
v 0.219000 0.571000 0.115000
v 0.219000 0.571000 -0.115000
v 0.219000 0.700000 0.115000
v 0.219000 0.700000 -0.115000
v -0.267767 0.700000 0.115000
v -0.267767 0.700000 -0.115000
v 0.059852 -0.032638 0.115000
v 0.059852 -0.032638 -0.115000
v 0.179834 0.019768 -0.115000
v 0.172853 0.022472 -0.127728
v 0.156000 0.029000 -0.133000
v -0.066252 0.571000 -0.115000
v -0.074379 0.576272 -0.127728
v -0.094000 0.589000 -0.133000
v 0.219000 0.571000 -0.115000
v 0.213728 0.576272 -0.127728
v 0.201000 0.589000 -0.133000
v 0.219000 0.700000 -0.115000
v 0.213728 0.694728 -0.127728
v 0.201000 0.682000 -0.133000
v -0.267767 0.700000 -0.115000
v -0.259634 0.694728 -0.127728
v -0.240000 0.682000 -0.133000
v 0.059852 -0.032638 -0.115000
v 0.062532 -0.025714 -0.127728
v 0.069000 -0.009000 -0.133000
vn -0.0000 0.0000 -1.0000
vn 0.0000 0.0000 1.0000
vn 0.6554 -0.2539 0.7113
vn 0.3004 -0.1949 0.9337
vn 0.1845 -0.1197 0.9755
vn 0.2611 -0.1011 0.9600
vn 0.8038 -0.3113 0.5070
vn 0.6676 -0.4330 0.6056
vn 0.4975 -0.4975 0.7106
vn 0.1987 -0.1987 0.9597
vn 0.6101 -0.6101 0.5054
vn 0.4975 0.4975 0.7106
vn 0.1987 0.1987 0.9597
vn 0.6101 0.6101 0.5054
vn -0.5488 0.3557 0.7565
vn -0.1844 0.1195 0.9755
vn -0.6676 0.4328 0.6058
vn -0.2542 -0.6568 0.7100
vn -0.1018 -0.2632 0.9593
vn -0.3117 -0.8056 0.5038
vn 0.9325 -0.3612 0.0000
vn 0.8389 -0.5442 0.0000
vn 0.7071 -0.7071 0.0000
vn 0.7071 0.7071 0.0000
vn -0.8391 0.5439 0.0000
vn -0.3609 -0.9326 0.0000
vn 0.6554 -0.2539 -0.7113
vn 0.3004 -0.1949 -0.9337
vn 0.6676 -0.4330 -0.6056
vn 0.8038 -0.3113 -0.5070
vn 0.2611 -0.1011 -0.9600
vn 0.1845 -0.1197 -0.9755
vn 0.4975 -0.4975 -0.7106
vn 0.6101 -0.6101 -0.5054
vn 0.1987 -0.1987 -0.9597
vn 0.4975 0.4975 -0.7106
vn 0.6101 0.6101 -0.5054
vn 0.1987 0.1987 -0.9597
vn -0.5488 0.3557 -0.7565
vn -0.6676 0.4328 -0.6058
vn -0.1844 0.1195 -0.9755
vn -0.2542 -0.6568 -0.7100
vn -0.3117 -0.8056 -0.5038
vn -0.1018 -0.2632 -0.9593
usemtl None
s off
f 3//1 5//1 4//1
f 3//1 2//1 5//1
f 2//1 6//1 5//1
f 1//1 6//1 2//1
f 11//2 9//2 10//2
f 8//2 9//2 11//2
f 12//2 8//2 11//2
f 12//2 7//2 8//2
s 1
f 14//3 17//4 16//5 13//6
f 15//7 18//8 17//4 14//3
f 17//4 20//9 19//10 16//5
f 18//8 21//11 20//9 17//4
f 20//9 23//12 22//13 19//10
f 21//11 24//14 23//12 20//9
f 23//12 26//15 25//16 22//13
f 24//14 27//17 26//15 23//12
f 26//15 29//18 28//19 25//16
f 27//17 30//20 29//18 26//15
f 29//18 14//3 13//6 28//19
f 30//20 15//7 14//3 29//18
f 32//21 34//22 33//22 31//21
f 34//22 36//23 35//23 33//22
f 36//23 38//24 37//24 35//23
f 38//24 40//25 39//25 37//24
f 40//25 42//26 41//26 39//25
f 42//26 32//21 31//21 41//26
f 44//27 47//28 46//29 43//30
f 45//31 48//32 47//28 44//27
f 47//28 50//33 49//34 46//29
f 48//32 51//35 50//33 47//28
f 50//33 53//36 52//37 49//34
f 51//35 54//38 53//36 50//33
f 53//36 56//39 55//40 52//37
f 54//38 57//41 56//39 53//36
f 56//39 59//42 58//43 55//40
f 57//41 60//44 59//42 56//39
f 59//42 44//27 43//30 58//43
f 60//44 45//31 44//27 59//42
