# Blender v2.79 (sub 0) OBJ File: 'alphanumeric_BASE.blend'
# www.blender.org
mtllib equals.mtl
o Text_Aasdf
v -0.236000 0.421000 -0.133000
v 0.236000 0.421000 -0.133000
v 0.236000 0.503000 -0.133000
v -0.236000 0.503000 -0.133000
v -0.236000 0.203000 -0.133000
v 0.236000 0.203000 -0.133000
v 0.236000 0.285000 -0.133000
v -0.236000 0.285000 -0.133000
v -0.236000 0.421000 0.133000
v 0.236000 0.421000 0.133000
v 0.236000 0.503000 0.133000
v -0.236000 0.503000 0.133000
v -0.236000 0.203000 0.133000
v 0.236000 0.203000 0.133000
v 0.236000 0.285000 0.133000
v -0.236000 0.285000 0.133000
v -0.236000 0.421000 0.133000
v -0.248728 0.408272 0.127728
v -0.254000 0.403000 0.115000
v 0.236000 0.421000 0.133000
v 0.248728 0.408272 0.127728
v 0.254000 0.403000 0.115000
v 0.236000 0.503000 0.133000
v 0.248728 0.515728 0.127728
v 0.254000 0.521000 0.115000
v -0.236000 0.503000 0.133000
v -0.248728 0.515728 0.127728
v -0.254000 0.521000 0.115000
v -0.254000 0.403000 0.115000
v -0.254000 0.403000 -0.115000
v 0.254000 0.403000 0.115000
v 0.254000 0.403000 -0.115000
v 0.254000 0.521000 0.115000
v 0.254000 0.521000 -0.115000
v -0.254000 0.521000 0.115000
v -0.254000 0.521000 -0.115000
v -0.254000 0.403000 -0.115000
v -0.248728 0.408272 -0.127728
v -0.236000 0.421000 -0.133000
v 0.254000 0.403000 -0.115000
v 0.248728 0.408272 -0.127728
v 0.236000 0.421000 -0.133000
v 0.254000 0.521000 -0.115000
v 0.248728 0.515728 -0.127728
v 0.236000 0.503000 -0.133000
v -0.254000 0.521000 -0.115000
v -0.248728 0.515728 -0.127728
v -0.236000 0.503000 -0.133000
v -0.236000 0.203000 0.133000
v -0.248728 0.190272 0.127728
v -0.254000 0.185000 0.115000
v 0.236000 0.203000 0.133000
v 0.248728 0.190272 0.127728
v 0.254000 0.185000 0.115000
v 0.236000 0.285000 0.133000
v 0.248728 0.297728 0.127728
v 0.254000 0.303000 0.115000
v -0.236000 0.285000 0.133000
v -0.248728 0.297728 0.127728
v -0.254000 0.303000 0.115000
v -0.254000 0.185000 0.115000
v -0.254000 0.185000 -0.115000
v 0.254000 0.185000 0.115000
v 0.254000 0.185000 -0.115000
v 0.254000 0.303000 0.115000
v 0.254000 0.303000 -0.115000
v -0.254000 0.303000 0.115000
v -0.254000 0.303000 -0.115000
v -0.254000 0.185000 -0.115000
v -0.248728 0.190272 -0.127728
v -0.236000 0.203000 -0.133000
v 0.254000 0.185000 -0.115000
v 0.248728 0.190272 -0.127728
v 0.236000 0.203000 -0.133000
v 0.254000 0.303000 -0.115000
v 0.248728 0.297728 -0.127728
v 0.236000 0.285000 -0.133000
v -0.254000 0.303000 -0.115000
v -0.248728 0.297728 -0.127728
v -0.236000 0.285000 -0.133000
vn -0.0000 0.0000 -1.0000
vn 0.0000 0.0000 1.0000
vn -0.4975 -0.4975 0.7106
vn 0.4975 -0.4975 0.7106
vn 0.1987 -0.1987 0.9597
vn -0.1987 -0.1987 0.9597
vn -0.6101 -0.6101 0.5054
vn 0.6101 -0.6101 0.5054
vn 0.4975 0.4975 0.7106
vn 0.1987 0.1987 0.9597
vn 0.6101 0.6101 0.5054
vn -0.4975 0.4975 0.7106
vn -0.1987 0.1987 0.9597
vn -0.6101 0.6101 0.5054
vn -0.7071 -0.7071 0.0000
vn 0.7071 -0.7071 0.0000
vn 0.7071 0.7071 0.0000
vn -0.7071 0.7071 0.0000
vn -0.4975 -0.4975 -0.7106
vn 0.4975 -0.4975 -0.7106
vn 0.6101 -0.6101 -0.5054
vn -0.6101 -0.6101 -0.5054
vn -0.1987 -0.1987 -0.9597
vn 0.1987 -0.1987 -0.9597
vn 0.4975 0.4975 -0.7106
vn 0.6101 0.6101 -0.5054
vn 0.1987 0.1987 -0.9597
vn -0.4975 0.4975 -0.7106
vn -0.6101 0.6101 -0.5054
vn -0.1987 0.1987 -0.9597
usemtl None
s off
f 6//1 8//1 7//1
f 6//1 5//1 8//1
f 2//1 4//1 3//1
f 2//1 1//1 4//1
f 16//2 14//2 15//2
f 13//2 14//2 16//2
f 12//2 10//2 11//2
f 9//2 10//2 12//2
s 1
f 18//3 21//4 20//5 17//6
f 19//7 22//8 21//4 18//3
f 21//4 24//9 23//10 20//5
f 22//8 25//11 24//9 21//4
f 24//9 27//12 26//13 23//10
f 25//11 28//14 27//12 24//9
f 27//12 18//3 17//6 26//13
f 28//14 19//7 18//3 27//12
f 30//15 32//16 31//16 29//15
f 32//16 34//17 33//17 31//16
f 34//17 36//18 35//18 33//17
f 36//18 30//15 29//15 35//18
f 38//19 41//20 40//21 37//22
f 39//23 42//24 41//20 38//19
f 41//20 44//25 43//26 40//21
f 42//24 45//27 44//25 41//20
f 44//25 47//28 46//29 43//26
f 45//27 48//30 47//28 44//25
f 47//28 38//19 37//22 46//29
f 48//30 39//23 38//19 47//28
f 50//3 53//4 52//5 49//6
f 51//7 54//8 53//4 50//3
f 53//4 56//9 55//10 52//5
f 54//8 57//11 56//9 53//4
f 56//9 59//12 58//13 55//10
f 57//11 60//14 59//12 56//9
f 59//12 50//3 49//6 58//13
f 60//14 51//7 50//3 59//12
f 62//15 64//16 63//16 61//15
f 64//16 66//17 65//17 63//16
f 66//17 68//18 67//18 65//17
f 68//18 62//15 61//15 67//18
f 70//19 73//20 72//21 69//22
f 71//23 74//24 73//20 70//19
f 73//20 76//25 75//26 72//21
f 74//24 77//27 76//25 73//20
f 76//25 79//28 78//29 75//26
f 77//27 80//30 79//28 76//25
f 79//28 70//19 69//22 78//29
f 80//30 71//23 70//19 79//28
