# Blender v2.79 (sub 0) OBJ File: 'alphanumeric_BASE.blend'
# www.blender.org
mtllib plus.mtl
o Text_Aasdf
v -0.041000 0.394000 -0.133000
v -0.236000 0.394000 -0.133000
v -0.236000 0.312000 -0.133000
v -0.041000 0.312000 -0.133000
v -0.041000 0.117000 -0.133000
v 0.041000 0.117000 -0.133000
v 0.041000 0.312000 -0.133000
v 0.236000 0.312000 -0.133000
v 0.236000 0.394000 -0.133000
v 0.041000 0.394000 -0.133000
v 0.041000 0.589000 -0.133000
v -0.041000 0.589000 -0.133000
v -0.041000 0.394000 0.133000
v -0.236000 0.394000 0.133000
v -0.236000 0.312000 0.133000
v -0.041000 0.312000 0.133000
v -0.041000 0.117000 0.133000
v 0.041000 0.117000 0.133000
v 0.041000 0.312000 0.133000
v 0.236000 0.312000 0.133000
v 0.236000 0.394000 0.133000
v 0.041000 0.394000 0.133000
v 0.041000 0.589000 0.133000
v -0.041000 0.589000 0.133000
v -0.041000 0.394000 0.133000
v -0.053728 0.406728 0.127728
v -0.059000 0.412000 0.115000
v -0.236000 0.394000 0.133000
v -0.248728 0.406728 0.127728
v -0.254000 0.412000 0.115000
v -0.236000 0.312000 0.133000
v -0.248728 0.299272 0.127728
v -0.254000 0.294000 0.115000
v -0.041000 0.312000 0.133000
v -0.053728 0.299272 0.127728
v -0.059000 0.294000 0.115000
v -0.041000 0.117000 0.133000
v -0.053728 0.104272 0.127728
v -0.059000 0.099000 0.115000
v 0.041000 0.117000 0.133000
v 0.053728 0.104272 0.127728
v 0.059000 0.099000 0.115000
v 0.041000 0.312000 0.133000
v 0.053728 0.299272 0.127728
v 0.059000 0.294000 0.115000
v 0.236000 0.312000 0.133000
v 0.248728 0.299272 0.127728
v 0.254000 0.294000 0.115000
v 0.236000 0.394000 0.133000
v 0.248728 0.406728 0.127728
v 0.254000 0.412000 0.115000
v 0.041000 0.394000 0.133000
v 0.053728 0.406728 0.127728
v 0.059000 0.412000 0.115000
v 0.041000 0.589000 0.133000
v 0.053728 0.601728 0.127728
v 0.059000 0.607000 0.115000
v -0.041000 0.589000 0.133000
v -0.053728 0.601728 0.127728
v -0.059000 0.607000 0.115000
v -0.059000 0.412000 0.115000
v -0.059000 0.412000 -0.115000
v -0.254000 0.412000 0.115000
v -0.254000 0.412000 -0.115000
v -0.254000 0.294000 0.115000
v -0.254000 0.294000 -0.115000
v -0.059000 0.294000 0.115000
v -0.059000 0.294000 -0.115000
v -0.059000 0.099000 0.115000
v -0.059000 0.099000 -0.115000
v 0.059000 0.099000 0.115000
v 0.059000 0.099000 -0.115000
v 0.059000 0.294000 0.115000
v 0.059000 0.294000 -0.115000
v 0.254000 0.294000 0.115000
v 0.254000 0.294000 -0.115000
v 0.254000 0.412000 0.115000
v 0.254000 0.412000 -0.115000
v 0.059000 0.412000 0.115000
v 0.059000 0.412000 -0.115000
v 0.059000 0.607000 0.115000
v 0.059000 0.607000 -0.115000
v -0.059000 0.607000 0.115000
v -0.059000 0.607000 -0.115000
v -0.059000 0.412000 -0.115000
v -0.053728 0.406728 -0.127728
v -0.041000 0.394000 -0.133000
v -0.254000 0.412000 -0.115000
v -0.248728 0.406728 -0.127728
v -0.236000 0.394000 -0.133000
v -0.254000 0.294000 -0.115000
v -0.248728 0.299272 -0.127728
v -0.236000 0.312000 -0.133000
v -0.059000 0.294000 -0.115000
v -0.053728 0.299272 -0.127728
v -0.041000 0.312000 -0.133000
v -0.059000 0.099000 -0.115000
v -0.053728 0.104272 -0.127728
v -0.041000 0.117000 -0.133000
v 0.059000 0.099000 -0.115000
v 0.053728 0.104272 -0.127728
v 0.041000 0.117000 -0.133000
v 0.059000 0.294000 -0.115000
v 0.053728 0.299272 -0.127728
v 0.041000 0.312000 -0.133000
v 0.254000 0.294000 -0.115000
v 0.248728 0.299272 -0.127728
v 0.236000 0.312000 -0.133000
v 0.254000 0.412000 -0.115000
v 0.248728 0.406728 -0.127728
v 0.236000 0.394000 -0.133000
v 0.059000 0.412000 -0.115000
v 0.053728 0.406728 -0.127728
v 0.041000 0.394000 -0.133000
v 0.059000 0.607000 -0.115000
v 0.053728 0.601728 -0.127728
v 0.041000 0.589000 -0.133000
v -0.059000 0.607000 -0.115000
v -0.053728 0.601728 -0.127728
v -0.041000 0.589000 -0.133000
vn 0.0000 -0.0000 -1.0000
vn 0.0000 1.0000 0.0000
vn 0.0000 -1.0000 0.0000
vn 0.0000 0.0000 1.0000
vn 0.0000 -0.1231 0.9924
vn 0.0000 0.1231 -0.9924
vn -0.3377 0.3377 0.8786
vn -0.4975 0.4975 0.7106
vn -0.1987 0.1987 0.9597
vn -0.6101 0.6101 0.5054
vn -0.4975 -0.4975 0.7106
vn -0.1987 -0.1987 0.9597
vn -0.6101 -0.6101 0.5054
vn -0.3377 -0.3377 0.8786
vn 0.4975 -0.4975 0.7106
vn 0.1987 -0.1987 0.9597
vn 0.6101 -0.6101 0.5054
vn 0.3377 -0.3377 0.8786
vn 0.4975 0.4975 0.7106
vn 0.1987 0.1987 0.9597
vn 0.6101 0.6101 0.5054
vn 0.3377 0.3377 0.8786
vn -0.7071 0.7071 0.0000
vn -0.7071 -0.7071 0.0000
vn 0.7071 -0.7071 0.0000
vn 0.7071 0.7071 0.0000
vn -0.3377 0.3377 -0.8786
vn -0.4975 0.4975 -0.7106
vn -0.6101 0.6101 -0.5054
vn -0.1987 0.1987 -0.9597
vn -0.4975 -0.4975 -0.7106
vn -0.6101 -0.6101 -0.5054
vn -0.1987 -0.1987 -0.9597
vn -0.3377 -0.3377 -0.8786
vn 0.4975 -0.4975 -0.7106
vn 0.6101 -0.6101 -0.5054
vn 0.1987 -0.1987 -0.9597
vn 0.3377 -0.3377 -0.8786
vn 0.4975 0.4975 -0.7106
vn 0.6101 0.6101 -0.5054
vn 0.1987 0.1987 -0.9597
vn 0.3377 0.3377 -0.8786
usemtl None
s off
f 10//1 12//1 11//1
f 10//1 1//1 12//1
f 8//1 10//1 9//1
f 8//1 1//1 10//1
f 8//1 2//1 1//1
f 8//1 3//1 2//1
f 7//2 3//2 8//2
f 6//1 4//1 7//1
f 4//3 3//3 7//3
f 6//1 5//1 4//1
f 24//4 22//4 23//4
f 13//4 22//4 24//4
f 22//4 20//4 21//4
f 13//4 20//4 22//4
f 14//4 20//4 13//4
f 15//4 20//4 14//4
f 15//5 19//5 20//5
f 16//4 18//4 19//4
f 15//6 16//6 19//6
f 17//4 18//4 16//4
s 1
f 26//7 29//8 28//9 25//9
f 27//10 30//10 29//8 26//7
f 29//8 32//11 31//12 28//9
f 30//10 33//13 32//11 29//8
f 32//11 35//14 34//12 31//12
f 33//13 36//13 35//14 32//11
f 35//14 38//11 37//12 34//12
f 36//13 39//13 38//11 35//14
f 38//11 41//15 40//16 37//12
f 39//13 42//17 41//15 38//11
f 41//15 44//18 43//16 40//16
f 42//17 45//17 44//18 41//15
f 44//18 47//15 46//16 43//16
f 45//17 48//17 47//15 44//18
f 47//15 50//19 49//20 46//16
f 48//17 51//21 50//19 47//15
f 50//19 53//22 52//20 49//20
f 51//21 54//21 53//22 50//19
f 53//22 56//19 55//20 52//20
f 54//21 57//21 56//19 53//22
f 56//19 59//8 58//9 55//20
f 57//21 60//10 59//8 56//19
f 59//8 26//7 25//9 58//9
f 60//10 27//10 26//7 59//8
f 62//23 64//23 63//23 61//23
f 64//23 66//24 65//24 63//23
f 66//24 68//24 67//24 65//24
f 68//24 70//24 69//24 67//24
f 70//24 72//25 71//25 69//24
f 72//25 74//25 73//25 71//25
f 74//25 76//25 75//25 73//25
f 76//25 78//26 77//26 75//25
f 78//26 80//26 79//26 77//26
f 80//26 82//26 81//26 79//26
f 82//26 84//23 83//23 81//26
f 84//23 62//23 61//23 83//23
f 86//27 89//28 88//29 85//29
f 87//30 90//30 89//28 86//27
f 89//28 92//31 91//32 88//29
f 90//30 93//33 92//31 89//28
f 92//31 95//34 94//32 91//32
f 93//33 96//33 95//34 92//31
f 95//34 98//31 97//32 94//32
f 96//33 99//33 98//31 95//34
f 98//31 101//35 100//36 97//32
f 99//33 102//37 101//35 98//31
f 101//35 104//38 103//36 100//36
f 102//37 105//37 104//38 101//35
f 104//38 107//35 106//36 103//36
f 105//37 108//37 107//35 104//38
f 107//35 110//39 109//40 106//36
f 108//37 111//41 110//39 107//35
f 110//39 113//42 112//40 109//40
f 111//41 114//41 113//42 110//39
f 113//42 116//39 115//40 112//40
f 114//41 117//41 116//39 113//42
f 116//39 119//28 118//29 115//40
f 117//41 120//30 119//28 116//39
f 119//28 86//27 85//29 118//29
f 120//30 87//30 86//27 119//28
