# Blender v2.79 (sub 0) OBJ File: 'alphanumeric_BASE.blend'
# www.blender.org
mtllib E.mtl
o Text_Aasdf
v 0.077000 0.594000 -0.133000
v 0.077000 0.388000 -0.133000
v -0.202000 0.388000 -0.133000
v -0.202000 0.300000 -0.133000
v 0.077000 0.300000 -0.133000
v 0.077000 0.088000 -0.133000
v -0.221000 0.088000 -0.133000
v -0.221000 -0.000000 -0.133000
v 0.175000 -0.000000 -0.133000
v 0.175000 0.682000 -0.133000
v -0.212000 0.682000 -0.133000
v -0.212000 0.594000 -0.133000
v 0.077000 0.594000 0.133000
v 0.077000 0.388000 0.133000
v -0.202000 0.388000 0.133000
v -0.202000 0.300000 0.133000
v 0.077000 0.300000 0.133000
v 0.077000 0.088000 0.133000
v -0.221000 0.088000 0.133000
v -0.221000 0.000000 0.133000
v 0.175000 0.000000 0.133000
v 0.175000 0.682000 0.133000
v -0.212000 0.682000 0.133000
v -0.212000 0.594000 0.133000
v 0.077000 0.594000 0.133000
v 0.064272 0.581272 0.127728
v 0.059000 0.576000 0.115000
v 0.077000 0.388000 0.133000
v 0.064272 0.400728 0.127728
v 0.059000 0.406000 0.115000
v -0.202000 0.388000 0.133000
v -0.214728 0.400728 0.127728
v -0.220000 0.406000 0.115000
v -0.202000 0.300000 0.133000
v -0.214728 0.287272 0.127728
v -0.220000 0.282000 0.115000
v 0.077000 0.300000 0.133000
v 0.064272 0.287272 0.127728
v 0.059000 0.282000 0.115000
v 0.077000 0.088000 0.133000
v 0.064272 0.100728 0.127728
v 0.059000 0.106000 0.115000
v -0.221000 0.088000 0.133000
v -0.233728 0.100728 0.127728
v -0.239000 0.106000 0.115000
v -0.221000 0.000000 0.133000
v -0.233728 -0.012728 0.127728
v -0.239000 -0.018000 0.115000
v 0.175000 0.000000 0.133000
v 0.187728 -0.012728 0.127728
v 0.193000 -0.018000 0.115000
v 0.175000 0.682000 0.133000
v 0.187728 0.694728 0.127728
v 0.193000 0.700000 0.115000
v -0.212000 0.682000 0.133000
v -0.224728 0.694728 0.127728
v -0.230000 0.700000 0.115000
v -0.212000 0.594000 0.133000
v -0.224728 0.581272 0.127728
v -0.230000 0.576000 0.115000
v 0.059000 0.576000 0.115000
v 0.059000 0.576000 -0.115000
v 0.059000 0.406000 0.115000
v 0.059000 0.406000 -0.115000
v -0.220000 0.406000 0.115000
v -0.220000 0.406000 -0.115000
v -0.220000 0.282000 0.115000
v -0.220000 0.282000 -0.115000
v 0.059000 0.282000 0.115000
v 0.059000 0.282000 -0.115000
v 0.059000 0.106000 0.115000
v 0.059000 0.106000 -0.115000
v -0.239000 0.106000 0.115000
v -0.239000 0.106000 -0.115000
v -0.239000 -0.018000 0.115000
v -0.239000 -0.018000 -0.115000
v 0.193000 -0.018000 0.115000
v 0.193000 -0.018000 -0.115000
v 0.193000 0.700000 0.115000
v 0.193000 0.700000 -0.115000
v -0.230000 0.700000 0.115000
v -0.230000 0.700000 -0.115000
v -0.230000 0.576000 0.115000
v -0.230000 0.576000 -0.115000
v 0.059000 0.576000 -0.115000
v 0.064272 0.581272 -0.127728
v 0.077000 0.594000 -0.133000
v 0.059000 0.406000 -0.115000
v 0.064272 0.400728 -0.127728
v 0.077000 0.388000 -0.133000
v -0.220000 0.406000 -0.115000
v -0.214728 0.400728 -0.127728
v -0.202000 0.388000 -0.133000
v -0.220000 0.282000 -0.115000
v -0.214728 0.287272 -0.127728
v -0.202000 0.300000 -0.133000
v 0.059000 0.282000 -0.115000
v 0.064272 0.287272 -0.127728
v 0.077000 0.300000 -0.133000
v 0.059000 0.106000 -0.115000
v 0.064272 0.100728 -0.127728
v 0.077000 0.088000 -0.133000
v -0.239000 0.106000 -0.115000
v -0.233728 0.100728 -0.127728
v -0.221000 0.088000 -0.133000
v -0.239000 -0.018000 -0.115000
v -0.233728 -0.012728 -0.127728
v -0.221000 -0.000000 -0.133000
v 0.193000 -0.018000 -0.115000
v 0.187728 -0.012728 -0.127728
v 0.175000 -0.000000 -0.133000
v 0.193000 0.700000 -0.115000
v 0.187728 0.694728 -0.127728
v 0.175000 0.682000 -0.133000
v -0.230000 0.700000 -0.115000
v -0.224728 0.694728 -0.127728
v -0.212000 0.682000 -0.133000
v -0.230000 0.576000 -0.115000
v -0.224728 0.581272 -0.127728
v -0.212000 0.594000 -0.133000
vn -0.0000 -0.0000 -1.0000
vn 0.0000 0.0000 1.0000
vn -0.3377 -0.3377 0.8786
vn -0.3377 0.3377 0.8786
vn -0.1987 0.1987 0.9597
vn -0.1987 -0.1987 0.9597
vn -0.6101 -0.6101 0.5054
vn -0.6101 0.6101 0.5054
vn -0.4975 0.4975 0.7106
vn -0.4975 -0.4975 0.7106
vn 0.4975 -0.4975 0.7106
vn 0.1987 -0.1987 0.9597
vn 0.6101 -0.6101 0.5054
vn 0.4975 0.4975 0.7106
vn 0.1987 0.1987 0.9597
vn 0.6101 0.6101 0.5054
vn -0.7071 -0.7071 0.0000
vn -0.7071 0.7071 0.0000
vn 0.7071 -0.7071 0.0000
vn 0.7071 0.7071 0.0000
vn -0.3377 -0.3377 -0.8786
vn -0.3377 0.3377 -0.8786
vn -0.6101 0.6101 -0.5054
vn -0.6101 -0.6101 -0.5054
vn -0.1987 -0.1987 -0.9597
vn -0.1987 0.1987 -0.9597
vn -0.4975 0.4975 -0.7106
vn -0.4975 -0.4975 -0.7106
vn 0.4975 -0.4975 -0.7106
vn 0.6101 -0.6101 -0.5054
vn 0.1987 -0.1987 -0.9597
vn 0.4975 0.4975 -0.7106
vn 0.6101 0.6101 -0.5054
vn 0.1987 0.1987 -0.9597
usemtl None
s off
f 9//1 1//1 10//1
f 1//1 11//1 10//1
f 1//1 12//1 11//1
f 9//1 2//1 1//1
f 9//1 5//1 2//1
f 5//1 3//1 2//1
f 5//1 4//1 3//1
f 9//1 6//1 5//1
f 9//1 7//1 6//1
f 9//1 8//1 7//1
f 13//2 21//2 22//2
f 23//2 13//2 22//2
f 24//2 13//2 23//2
f 14//2 21//2 13//2
f 17//2 21//2 14//2
f 15//2 17//2 14//2
f 16//2 17//2 15//2
f 18//2 21//2 17//2
f 19//2 21//2 18//2
f 20//2 21//2 19//2
s 1
f 26//3 29//4 28//5 25//6
f 27//7 30//8 29//4 26//3
f 29//4 32//9 31//5 28//5
f 30//8 33//8 32//9 29//4
f 32//9 35//10 34//6 31//5
f 33//8 36//7 35//10 32//9
f 35//10 38//3 37//6 34//6
f 36//7 39//7 38//3 35//10
f 38//3 41//4 40//5 37//6
f 39//7 42//8 41//4 38//3
f 41//4 44//9 43//5 40//5
f 42//8 45//8 44//9 41//4
f 44//9 47//10 46//6 43//5
f 45//8 48//7 47//10 44//9
f 47//10 50//11 49//12 46//6
f 48//7 51//13 50//11 47//10
f 50//11 53//14 52//15 49//12
f 51//13 54//16 53//14 50//11
f 53//14 56//9 55//5 52//15
f 54//16 57//8 56//9 53//14
f 56//9 59//10 58//6 55//5
f 57//8 60//7 59//10 56//9
f 59//10 26//3 25//6 58//6
f 60//7 27//7 26//3 59//10
f 62//17 64//18 63//18 61//17
f 64//18 66//18 65//18 63//18
f 66//18 68//17 67//17 65//18
f 68//17 70//17 69//17 67//17
f 70//17 72//18 71//18 69//17
f 72//18 74//18 73//18 71//18
f 74//18 76//17 75//17 73//18
f 76//17 78//19 77//19 75//17
f 78//19 80//20 79//20 77//19
f 80//20 82//18 81//18 79//20
f 82//18 84//17 83//17 81//18
f 84//17 62//17 61//17 83//17
f 86//21 89//22 88//23 85//24
f 87//25 90//26 89//22 86//21
f 89//22 92//27 91//23 88//23
f 90//26 93//26 92//27 89//22
f 92//27 95//28 94//24 91//23
f 93//26 96//25 95//28 92//27
f 95//28 98//21 97//24 94//24
f 96//25 99//25 98//21 95//28
f 98//21 101//22 100//23 97//24
f 99//25 102//26 101//22 98//21
f 101//22 104//27 103//23 100//23
f 102//26 105//26 104//27 101//22
f 104//27 107//28 106//24 103//23
f 105//26 108//25 107//28 104//27
f 107//28 110//29 109//30 106//24
f 108//25 111//31 110//29 107//28
f 110//29 113//32 112//33 109//30
f 111//31 114//34 113//32 110//29
f 113//32 116//27 115//23 112//33
f 114//34 117//26 116//27 113//32
f 116//27 119//28 118//24 115//23
f 117//26 120//25 119//28 116//27
f 119//28 86//21 85//24 118//24
f 120//25 87//25 86//21 119//28
