# Blender v2.79 (sub 0) OBJ File: 'alphanumeric_BASE.blend'
# www.blender.org
mtllib F.mtl
o Text_Aasdf
v 0.060500 0.594000 -0.133000
v 0.060500 0.405000 -0.133000
v -0.205500 0.405000 -0.133000
v -0.205500 0.317000 -0.133000
v 0.060500 0.317000 -0.133000
v 0.060500 -0.000000 -0.133000
v 0.158500 -0.000000 -0.133000
v 0.158500 0.682000 -0.133000
v -0.205500 0.682000 -0.133000
v -0.205500 0.594000 -0.133000
v 0.060500 0.594000 0.133000
v 0.060500 0.405000 0.133000
v -0.205500 0.405000 0.133000
v -0.205500 0.317000 0.133000
v 0.060500 0.317000 0.133000
v 0.060500 0.000000 0.133000
v 0.158500 0.000000 0.133000
v 0.158500 0.682000 0.133000
v -0.205500 0.682000 0.133000
v -0.205500 0.594000 0.133000
v 0.060500 0.594000 0.133000
v 0.047772 0.581272 0.127728
v 0.042500 0.576000 0.115000
v 0.060500 0.405000 0.133000
v 0.047772 0.417728 0.127728
v 0.042500 0.423000 0.115000
v -0.205500 0.405000 0.133000
v -0.218228 0.417728 0.127728
v -0.223500 0.423000 0.115000
v -0.205500 0.317000 0.133000
v -0.218228 0.304272 0.127728
v -0.223500 0.299000 0.115000
v 0.060500 0.317000 0.133000
v 0.047772 0.304272 0.127728
v 0.042500 0.299000 0.115000
v 0.060500 0.000000 0.133000
v 0.047772 -0.012728 0.127728
v 0.042500 -0.018000 0.115000
v 0.158500 0.000000 0.133000
v 0.171228 -0.012728 0.127728
v 0.176500 -0.018000 0.115000
v 0.158500 0.682000 0.133000
v 0.171228 0.694728 0.127728
v 0.176500 0.700000 0.115000
v -0.205500 0.682000 0.133000
v -0.218228 0.694728 0.127728
v -0.223500 0.700000 0.115000
v -0.205500 0.594000 0.133000
v -0.218228 0.581272 0.127728
v -0.223500 0.576000 0.115000
v 0.042500 0.576000 0.115000
v 0.042500 0.576000 -0.115000
v 0.042500 0.423000 0.115000
v 0.042500 0.423000 -0.115000
v -0.223500 0.423000 0.115000
v -0.223500 0.423000 -0.115000
v -0.223500 0.299000 0.115000
v -0.223500 0.299000 -0.115000
v 0.042500 0.299000 0.115000
v 0.042500 0.299000 -0.115000
v 0.042500 -0.018000 0.115000
v 0.042500 -0.018000 -0.115000
v 0.176500 -0.018000 0.115000
v 0.176500 -0.018000 -0.115000
v 0.176500 0.700000 0.115000
v 0.176500 0.700000 -0.115000
v -0.223500 0.700000 0.115000
v -0.223500 0.700000 -0.115000
v -0.223500 0.576000 0.115000
v -0.223500 0.576000 -0.115000
v 0.042500 0.576000 -0.115000
v 0.047772 0.581272 -0.127728
v 0.060500 0.594000 -0.133000
v 0.042500 0.423000 -0.115000
v 0.047772 0.417728 -0.127728
v 0.060500 0.405000 -0.133000
v -0.223500 0.423000 -0.115000
v -0.218228 0.417728 -0.127728
v -0.205500 0.405000 -0.133000
v -0.223500 0.299000 -0.115000
v -0.218228 0.304272 -0.127728
v -0.205500 0.317000 -0.133000
v 0.042500 0.299000 -0.115000
v 0.047772 0.304272 -0.127728
v 0.060500 0.317000 -0.133000
v 0.042500 -0.018000 -0.115000
v 0.047772 -0.012728 -0.127728
v 0.060500 -0.000000 -0.133000
v 0.176500 -0.018000 -0.115000
v 0.171228 -0.012728 -0.127728
v 0.158500 -0.000000 -0.133000
v 0.176500 0.700000 -0.115000
v 0.171228 0.694728 -0.127728
v 0.158500 0.682000 -0.133000
v -0.223500 0.700000 -0.115000
v -0.218228 0.694728 -0.127728
v -0.205500 0.682000 -0.133000
v -0.223500 0.576000 -0.115000
v -0.218228 0.581272 -0.127728
v -0.205500 0.594000 -0.133000
vn -0.0000 -0.0000 -1.0000
vn 0.0000 0.0000 1.0000
vn -0.3377 -0.3377 0.8786
vn -0.3377 0.3377 0.8786
vn -0.1987 0.1987 0.9597
vn -0.1987 -0.1987 0.9597
vn -0.6101 -0.6101 0.5054
vn -0.6101 0.6101 0.5054
vn -0.4975 0.4975 0.7106
vn -0.4975 -0.4975 0.7106
vn 0.4975 -0.4975 0.7106
vn 0.1987 -0.1987 0.9597
vn 0.6101 -0.6101 0.5054
vn 0.4975 0.4975 0.7106
vn 0.1987 0.1987 0.9597
vn 0.6101 0.6101 0.5054
vn -0.7071 -0.7071 0.0000
vn -0.7071 0.7071 0.0000
vn 0.7071 -0.7071 0.0000
vn 0.7071 0.7071 0.0000
vn -0.3377 -0.3377 -0.8786
vn -0.3377 0.3377 -0.8786
vn -0.6101 0.6101 -0.5054
vn -0.6101 -0.6101 -0.5054
vn -0.1987 -0.1987 -0.9597
vn -0.1987 0.1987 -0.9597
vn -0.4975 0.4975 -0.7106
vn -0.4975 -0.4975 -0.7106
vn 0.4975 -0.4975 -0.7106
vn 0.6101 -0.6101 -0.5054
vn 0.1987 -0.1987 -0.9597
vn 0.4975 0.4975 -0.7106
vn 0.6101 0.6101 -0.5054
vn 0.1987 0.1987 -0.9597
usemtl None
s off
f 7//1 1//1 8//1
f 1//1 9//1 8//1
f 1//1 10//1 9//1
f 7//1 2//1 1//1
f 7//1 5//1 2//1
f 5//1 3//1 2//1
f 5//1 4//1 3//1
f 7//1 6//1 5//1
f 11//2 17//2 18//2
f 19//2 11//2 18//2
f 20//2 11//2 19//2
f 12//2 17//2 11//2
f 15//2 17//2 12//2
f 13//2 15//2 12//2
f 14//2 15//2 13//2
f 16//2 17//2 15//2
s 1
f 22//3 25//4 24//5 21//6
f 23//7 26//8 25//4 22//3
f 25//4 28//9 27//5 24//5
f 26//8 29//8 28//9 25//4
f 28//9 31//10 30//6 27//5
f 29//8 32//7 31//10 28//9
f 31//10 34//3 33//6 30//6
f 32//7 35//7 34//3 31//10
f 34//3 37//10 36//6 33//6
f 35//7 38//7 37//10 34//3
f 37//10 40//11 39//12 36//6
f 38//7 41//13 40//11 37//10
f 40//11 43//14 42//15 39//12
f 41//13 44//16 43//14 40//11
f 43//14 46//9 45//5 42//15
f 44//16 47//8 46//9 43//14
f 46//9 49//10 48//6 45//5
f 47//8 50//7 49//10 46//9
f 49//10 22//3 21//6 48//6
f 50//7 23//7 22//3 49//10
f 52//17 54//18 53//18 51//17
f 54//18 56//18 55//18 53//18
f 56//18 58//17 57//17 55//18
f 58//17 60//17 59//17 57//17
f 60//17 62//17 61//17 59//17
f 62//17 64//19 63//19 61//17
f 64//19 66//20 65//20 63//19
f 66//20 68//18 67//18 65//20
f 68//18 70//17 69//17 67//18
f 70//17 52//17 51//17 69//17
f 72//21 75//22 74//23 71//24
f 73//25 76//26 75//22 72//21
f 75//22 78//27 77//23 74//23
f 76//26 79//26 78//27 75//22
f 78//27 81//28 80//24 77//23
f 79//26 82//25 81//28 78//27
f 81//28 84//21 83//24 80//24
f 82//25 85//25 84//21 81//28
f 84//21 87//28 86//24 83//24
f 85//25 88//25 87//28 84//21
f 87//28 90//29 89//30 86//24
f 88//25 91//31 90//29 87//28
f 90//29 93//32 92//33 89//30
f 91//31 94//34 93//32 90//29
f 93//32 96//27 95//23 92//33
f 94//34 97//26 96//27 93//32
f 96//27 99//28 98//24 95//23
f 97//26 100//25 99//28 96//27
f 99//28 72//21 71//24 98//24
f 100//25 73//25 72//21 99//28
