# Blender v2.79 (sub 0) OBJ File: 'alphanumeric_BASE.blend'
# www.blender.org
mtllib H.mtl
o Text_Aasdf
v -0.190500 -0.000000 -0.133000
v -0.190500 0.297000 -0.133000
v 0.191500 0.297000 -0.133000
v 0.191500 -0.000000 -0.133000
v 0.289500 -0.000000 -0.133000
v 0.289500 0.682000 -0.133000
v 0.191500 0.682000 -0.133000
v 0.191500 0.385000 -0.133000
v -0.190500 0.385000 -0.133000
v -0.190500 0.682000 -0.133000
v -0.288500 0.682000 -0.133000
v -0.288500 -0.000000 -0.133000
v -0.190500 0.000000 0.133000
v -0.190500 0.297000 0.133000
v 0.191500 0.297000 0.133000
v 0.191500 0.000000 0.133000
v 0.289500 0.000000 0.133000
v 0.289500 0.682000 0.133000
v 0.191500 0.682000 0.133000
v 0.191500 0.385000 0.133000
v -0.190500 0.385000 0.133000
v -0.190500 0.682000 0.133000
v -0.288500 0.682000 0.133000
v -0.288500 0.000000 0.133000
v -0.190500 0.000000 0.133000
v -0.177772 -0.012728 0.127728
v -0.172500 -0.018000 0.115000
v -0.190500 0.297000 0.133000
v -0.177772 0.284272 0.127728
v -0.172500 0.279000 0.115000
v 0.191500 0.297000 0.133000
v 0.178772 0.284272 0.127728
v 0.173500 0.279000 0.115000
v 0.191500 0.000000 0.133000
v 0.178772 -0.012728 0.127728
v 0.173500 -0.018000 0.115000
v 0.289500 0.000000 0.133000
v 0.302228 -0.012728 0.127728
v 0.307500 -0.018000 0.115000
v 0.289500 0.682000 0.133000
v 0.302228 0.694728 0.127728
v 0.307500 0.700000 0.115000
v 0.191500 0.682000 0.133000
v 0.178772 0.694728 0.127728
v 0.173500 0.700000 0.115000
v 0.191500 0.385000 0.133000
v 0.178772 0.397728 0.127728
v 0.173500 0.403000 0.115000
v -0.190500 0.385000 0.133000
v -0.177772 0.397728 0.127728
v -0.172500 0.403000 0.115000
v -0.190500 0.682000 0.133000
v -0.177772 0.694728 0.127728
v -0.172500 0.700000 0.115000
v -0.288500 0.682000 0.133000
v -0.301228 0.694728 0.127728
v -0.306500 0.700000 0.115000
v -0.288500 0.000000 0.133000
v -0.301228 -0.012728 0.127728
v -0.306500 -0.018000 0.115000
v -0.172500 -0.018000 0.115000
v -0.172500 -0.018000 -0.115000
v -0.172500 0.279000 0.115000
v -0.172500 0.279000 -0.115000
v 0.173500 0.279000 0.115000
v 0.173500 0.279000 -0.115000
v 0.173500 -0.018000 0.115000
v 0.173500 -0.018000 -0.115000
v 0.307500 -0.018000 0.115000
v 0.307500 -0.018000 -0.115000
v 0.307500 0.700000 0.115000
v 0.307500 0.700000 -0.115000
v 0.173500 0.700000 0.115000
v 0.173500 0.700000 -0.115000
v 0.173500 0.403000 0.115000
v 0.173500 0.403000 -0.115000
v -0.172500 0.403000 0.115000
v -0.172500 0.403000 -0.115000
v -0.172500 0.700000 0.115000
v -0.172500 0.700000 -0.115000
v -0.306500 0.700000 0.115000
v -0.306500 0.700000 -0.115000
v -0.306500 -0.018000 0.115000
v -0.306500 -0.018000 -0.115000
v -0.172500 -0.018000 -0.115000
v -0.177772 -0.012728 -0.127728
v -0.190500 -0.000000 -0.133000
v -0.172500 0.279000 -0.115000
v -0.177772 0.284272 -0.127728
v -0.190500 0.297000 -0.133000
v 0.173500 0.279000 -0.115000
v 0.178772 0.284272 -0.127728
v 0.191500 0.297000 -0.133000
v 0.173500 -0.018000 -0.115000
v 0.178772 -0.012728 -0.127728
v 0.191500 -0.000000 -0.133000
v 0.307500 -0.018000 -0.115000
v 0.302228 -0.012728 -0.127728
v 0.289500 -0.000000 -0.133000
v 0.307500 0.700000 -0.115000
v 0.302228 0.694728 -0.127728
v 0.289500 0.682000 -0.133000
v 0.173500 0.700000 -0.115000
v 0.178772 0.694728 -0.127728
v 0.191500 0.682000 -0.133000
v 0.173500 0.403000 -0.115000
v 0.178772 0.397728 -0.127728
v 0.191500 0.385000 -0.133000
v -0.172500 0.403000 -0.115000
v -0.177772 0.397728 -0.127728
v -0.190500 0.385000 -0.133000
v -0.172500 0.700000 -0.115000
v -0.177772 0.694728 -0.127728
v -0.190500 0.682000 -0.133000
v -0.306500 0.700000 -0.115000
v -0.301228 0.694728 -0.127728
v -0.288500 0.682000 -0.133000
v -0.306500 -0.018000 -0.115000
v -0.301228 -0.012728 -0.127728
v -0.288500 -0.000000 -0.133000
vn -0.0000 -0.0000 -1.0000
vn 0.0000 0.0000 1.0000
vn 0.4975 -0.4975 0.7106
vn 0.3377 -0.3377 0.8786
vn 0.1987 -0.1987 0.9597
vn 0.6101 -0.6101 0.5054
vn -0.3377 -0.3377 0.8786
vn -0.1987 -0.1987 0.9597
vn -0.6101 -0.6101 0.5054
vn -0.4975 -0.4975 0.7106
vn 0.4975 0.4975 0.7106
vn 0.1987 0.1987 0.9597
vn 0.6101 0.6101 0.5054
vn -0.4975 0.4975 0.7106
vn -0.1987 0.1987 0.9597
vn -0.6101 0.6101 0.5054
vn -0.3377 0.3377 0.8786
vn 0.3377 0.3377 0.8786
vn 0.7071 -0.7071 0.0000
vn -0.7071 -0.7071 0.0000
vn 0.7071 0.7071 0.0000
vn -0.7071 0.7071 0.0000
vn 0.4975 -0.4975 -0.7106
vn 0.3377 -0.3377 -0.8786
vn 0.6101 -0.6101 -0.5054
vn 0.1987 -0.1987 -0.9597
vn -0.3377 -0.3377 -0.8786
vn -0.6101 -0.6101 -0.5054
vn -0.1987 -0.1987 -0.9597
vn -0.4975 -0.4975 -0.7106
vn 0.4975 0.4975 -0.7106
vn 0.6101 0.6101 -0.5054
vn 0.1987 0.1987 -0.9597
vn -0.4975 0.4975 -0.7106
vn -0.6101 0.6101 -0.5054
vn -0.1987 0.1987 -0.9597
vn -0.3377 0.3377 -0.8786
vn 0.3377 0.3377 -0.8786
usemtl None
s off
f 5//1 7//1 6//1
f 5//1 8//1 7//1
f 9//1 11//1 10//1
f 9//1 12//1 11//1
f 5//1 3//1 8//1
f 3//1 9//1 8//1
f 3//1 2//1 9//1
f 2//1 12//1 9//1
f 5//1 4//1 3//1
f 1//1 12//1 2//1
f 19//2 17//2 18//2
f 20//2 17//2 19//2
f 23//2 21//2 22//2
f 24//2 21//2 23//2
f 15//2 17//2 20//2
f 21//2 15//2 20//2
f 14//2 15//2 21//2
f 24//2 14//2 21//2
f 16//2 17//2 15//2
f 24//2 13//2 14//2
s 1
f 26//3 29//4 28//5 25//5
f 27//6 30//6 29//4 26//3
f 29//4 32//7 31//8 28//5
f 30//6 33//9 32//7 29//4
f 32//7 35//10 34//8 31//8
f 33//9 36//9 35//10 32//7
f 35//10 38//3 37//5 34//8
f 36//9 39//6 38//3 35//10
f 38//3 41//11 40//12 37//5
f 39//6 42//13 41//11 38//3
f 41//11 44//14 43//15 40//12
f 42//13 45//16 44//14 41//11
f 44//14 47//17 46//15 43//15
f 45//16 48//16 47//17 44//14
f 47//17 50//18 49//12 46//15
f 48//16 51//13 50//18 47//17
f 50//18 53//11 52//12 49//12
f 51//13 54//13 53//11 50//18
f 53//11 56//14 55//15 52//12
f 54//13 57//16 56//14 53//11
f 56//14 59//10 58//8 55//15
f 57//16 60//9 59//10 56//14
f 59//10 26//3 25//5 58//8
f 60//9 27//6 26//3 59//10
f 62//19 64//19 63//19 61//19
f 64//19 66//20 65//20 63//19
f 66//20 68//20 67//20 65//20
f 68//20 70//19 69//19 67//20
f 70//19 72//21 71//21 69//19
f 72//21 74//22 73//22 71//21
f 74//22 76//22 75//22 73//22
f 76//22 78//21 77//21 75//22
f 78//21 80//21 79//21 77//21
f 80//21 82//22 81//22 79//21
f 82//22 84//20 83//20 81//22
f 84//20 62//19 61//19 83//20
f 86//23 89//24 88//25 85//25
f 87//26 90//26 89//24 86//23
f 89//24 92//27 91//28 88//25
f 90//26 93//29 92//27 89//24
f 92//27 95//30 94//28 91//28
f 93//29 96//29 95//30 92//27
f 95//30 98//23 97//25 94//28
f 96//29 99//26 98//23 95//30
f 98//23 101//31 100//32 97//25
f 99//26 102//33 101//31 98//23
f 101//31 104//34 103//35 100//32
f 102//33 105//36 104//34 101//31
f 104//34 107//37 106//35 103//35
f 105//36 108//36 107//37 104//34
f 107//37 110//38 109//32 106//35
f 108//36 111//33 110//38 107//37
f 110//38 113//31 112//32 109//32
f 111//33 114//33 113//31 110//38
f 113//31 116//34 115//35 112//32
f 114//33 117//36 116//34 113//31
f 116//34 119//30 118//28 115//35
f 117//36 120//29 119//30 116//34
f 119//30 86//23 85//25 118//28
f 120//29 87//26 86//23 119//30
