# Blender v2.79 (sub 0) OBJ File: 'alphanumeric_BASE.blend'
# www.blender.org
mtllib L.mtl
o Text_Aasdf
v -0.235000 0.088000 -0.133000
v -0.235000 -0.000000 -0.133000
v 0.171000 -0.000000 -0.133000
v 0.171000 0.682000 -0.133000
v 0.073000 0.682000 -0.133000
v 0.073000 0.088000 -0.133000
v -0.235000 0.088000 0.133000
v -0.235000 0.000000 0.133000
v 0.171000 0.000000 0.133000
v 0.171000 0.682000 0.133000
v 0.073000 0.682000 0.133000
v 0.073000 0.088000 0.133000
v -0.235000 0.088000 0.133000
v -0.247728 0.100728 0.127728
v -0.253000 0.106000 0.115000
v -0.235000 0.000000 0.133000
v -0.247728 -0.012728 0.127728
v -0.253000 -0.018000 0.115000
v 0.171000 0.000000 0.133000
v 0.183728 -0.012728 0.127728
v 0.189000 -0.018000 0.115000
v 0.171000 0.682000 0.133000
v 0.183728 0.694728 0.127728
v 0.189000 0.700000 0.115000
v 0.073000 0.682000 0.133000
v 0.060272 0.694728 0.127728
v 0.055000 0.700000 0.115000
v 0.073000 0.088000 0.133000
v 0.060272 0.100728 0.127728
v 0.055000 0.106000 0.115000
v -0.253000 0.106000 0.115000
v -0.253000 0.106000 -0.115000
v -0.253000 -0.018000 0.115000
v -0.253000 -0.018000 -0.115000
v 0.189000 -0.018000 0.115000
v 0.189000 -0.018000 -0.115000
v 0.189000 0.700000 0.115000
v 0.189000 0.700000 -0.115000
v 0.055000 0.700000 0.115000
v 0.055000 0.700000 -0.115000
v 0.055000 0.106000 0.115000
v 0.055000 0.106000 -0.115000
v -0.253000 0.106000 -0.115000
v -0.247728 0.100728 -0.127728
v -0.235000 0.088000 -0.133000
v -0.253000 -0.018000 -0.115000
v -0.247728 -0.012728 -0.127728
v -0.235000 -0.000000 -0.133000
v 0.189000 -0.018000 -0.115000
v 0.183728 -0.012728 -0.127728
v 0.171000 -0.000000 -0.133000
v 0.189000 0.700000 -0.115000
v 0.183728 0.694728 -0.127728
v 0.171000 0.682000 -0.133000
v 0.055000 0.700000 -0.115000
v 0.060272 0.694728 -0.127728
v 0.073000 0.682000 -0.133000
v 0.055000 0.106000 -0.115000
v 0.060272 0.100728 -0.127728
v 0.073000 0.088000 -0.133000
vn -0.0000 -0.0000 -1.0000
vn 0.0000 0.0000 1.0000
vn -0.4975 0.4975 0.7106
vn -0.4975 -0.4975 0.7106
vn -0.1987 -0.1987 0.9597
vn -0.1987 0.1987 0.9597
vn -0.6101 0.6101 0.5054
vn -0.6101 -0.6101 0.5054
vn 0.4975 -0.4975 0.7106
vn 0.1987 -0.1987 0.9597
vn 0.6101 -0.6101 0.5054
vn 0.4975 0.4975 0.7106
vn 0.1987 0.1987 0.9597
vn 0.6101 0.6101 0.5054
vn -0.3377 0.3377 0.8786
vn -0.7071 0.7071 0.0000
vn -0.7071 -0.7071 0.0000
vn 0.7071 -0.7071 0.0000
vn 0.7071 0.7071 0.0000
vn -0.4975 0.4975 -0.7106
vn -0.4975 -0.4975 -0.7106
vn -0.6101 -0.6101 -0.5054
vn -0.6101 0.6101 -0.5054
vn -0.1987 0.1987 -0.9597
vn -0.1987 -0.1987 -0.9597
vn 0.4975 -0.4975 -0.7106
vn 0.6101 -0.6101 -0.5054
vn 0.1987 -0.1987 -0.9597
vn 0.4975 0.4975 -0.7106
vn 0.6101 0.6101 -0.5054
vn 0.1987 0.1987 -0.9597
vn -0.3377 0.3377 -0.8786
usemtl None
s off
f 3//1 5//1 4//1
f 3//1 6//1 5//1
f 3//1 1//1 6//1
f 3//1 2//1 1//1
f 11//2 9//2 10//2
f 12//2 9//2 11//2
f 7//2 9//2 12//2
f 8//2 9//2 7//2
s 1
f 14//3 17//4 16//5 13//6
f 15//7 18//8 17//4 14//3
f 17//4 20//9 19//10 16//5
f 18//8 21//11 20//9 17//4
f 20//9 23//12 22//13 19//10
f 21//11 24//14 23//12 20//9
f 23//12 26//3 25//6 22//13
f 24//14 27//7 26//3 23//12
f 26//3 29//15 28//6 25//6
f 27//7 30//7 29//15 26//3
f 29//15 14//3 13//6 28//6
f 30//7 15//7 14//3 29//15
f 32//16 34//17 33//17 31//16
f 34//17 36//18 35//18 33//17
f 36//18 38//19 37//19 35//18
f 38//19 40//16 39//16 37//19
f 40//16 42//16 41//16 39//16
f 42//16 32//16 31//16 41//16
f 44//20 47//21 46//22 43//23
f 45//24 48//25 47//21 44//20
f 47//21 50//26 49//27 46//22
f 48//25 51//28 50//26 47//21
f 50//26 53//29 52//30 49//27
f 51//28 54//31 53//29 50//26
f 53//29 56//20 55//23 52//30
f 54//31 57//24 56//20 53//29
f 56//20 59//32 58//23 55//23
f 57//24 60//24 59//32 56//20
f 59//32 44//20 43//23 58//23
f 60//24 45//24 44//20 59//32
