# Blender v2.79 (sub 0) OBJ File: 'alphanumeric_BASE.blend'
# www.blender.org
mtllib T.mtl
o Text_Aasdf
v -0.049000 0.594000 -0.133000
v -0.049000 -0.000000 -0.133000
v 0.049000 -0.000000 -0.133000
v 0.049000 0.594000 -0.133000
v 0.285000 0.594000 -0.133000
v 0.285000 0.682000 -0.133000
v -0.285000 0.682000 -0.133000
v -0.285000 0.594000 -0.133000
v -0.049000 0.594000 0.133000
v -0.049000 0.000000 0.133000
v 0.049000 0.000000 0.133000
v 0.049000 0.594000 0.133000
v 0.285000 0.594000 0.133000
v 0.285000 0.682000 0.133000
v -0.285000 0.682000 0.133000
v -0.285000 0.594000 0.133000
v -0.049000 0.594000 0.133000
v -0.061728 0.581272 0.127728
v -0.067000 0.576000 0.115000
v -0.049000 0.000000 0.133000
v -0.061728 -0.012728 0.127728
v -0.067000 -0.018000 0.115000
v 0.049000 0.000000 0.133000
v 0.061728 -0.012728 0.127728
v 0.067000 -0.018000 0.115000
v 0.049000 0.594000 0.133000
v 0.061728 0.581272 0.127728
v 0.067000 0.576000 0.115000
v 0.285000 0.594000 0.133000
v 0.297728 0.581272 0.127728
v 0.303000 0.576000 0.115000
v 0.285000 0.682000 0.133000
v 0.297728 0.694728 0.127728
v 0.303000 0.700000 0.115000
v -0.285000 0.682000 0.133000
v -0.297728 0.694728 0.127728
v -0.303000 0.700000 0.115000
v -0.285000 0.594000 0.133000
v -0.297728 0.581272 0.127728
v -0.303000 0.576000 0.115000
v -0.067000 0.576000 0.115000
v -0.067000 0.576000 -0.115000
v -0.067000 -0.018000 0.115000
v -0.067000 -0.018000 -0.115000
v 0.067000 -0.018000 0.115000
v 0.067000 -0.018000 -0.115000
v 0.067000 0.576000 0.115000
v 0.067000 0.576000 -0.115000
v 0.303000 0.576000 0.115000
v 0.303000 0.576000 -0.115000
v 0.303000 0.700000 0.115000
v 0.303000 0.700000 -0.115000
v -0.303000 0.700000 0.115000
v -0.303000 0.700000 -0.115000
v -0.303000 0.576000 0.115000
v -0.303000 0.576000 -0.115000
v -0.067000 0.576000 -0.115000
v -0.061728 0.581272 -0.127728
v -0.049000 0.594000 -0.133000
v -0.067000 -0.018000 -0.115000
v -0.061728 -0.012728 -0.127728
v -0.049000 -0.000000 -0.133000
v 0.067000 -0.018000 -0.115000
v 0.061728 -0.012728 -0.127728
v 0.049000 -0.000000 -0.133000
v 0.067000 0.576000 -0.115000
v 0.061728 0.581272 -0.127728
v 0.049000 0.594000 -0.133000
v 0.303000 0.576000 -0.115000
v 0.297728 0.581272 -0.127728
v 0.285000 0.594000 -0.133000
v 0.303000 0.700000 -0.115000
v 0.297728 0.694728 -0.127728
v 0.285000 0.682000 -0.133000
v -0.303000 0.700000 -0.115000
v -0.297728 0.694728 -0.127728
v -0.285000 0.682000 -0.133000
v -0.303000 0.576000 -0.115000
v -0.297728 0.581272 -0.127728
v -0.285000 0.594000 -0.133000
vn -0.0000 0.0000 -1.0000
vn 0.0000 -1.0000 0.0000
vn 0.0000 0.0090 -1.0000
vn 0.0000 0.0000 1.0000
vn 0.0000 0.0090 1.0000
vn -0.3377 -0.3377 0.8786
vn -0.4975 -0.4975 0.7106
vn -0.1987 -0.1987 0.9597
vn -0.6101 -0.6101 0.5054
vn 0.4975 -0.4975 0.7106
vn 0.1987 -0.1987 0.9597
vn 0.6101 -0.6101 0.5054
vn 0.3377 -0.3377 0.8786
vn 0.4975 0.4975 0.7106
vn 0.1987 0.1987 0.9597
vn 0.6101 0.6101 0.5054
vn -0.4975 0.4975 0.7106
vn -0.1987 0.1987 0.9597
vn -0.6101 0.6101 0.5054
vn -0.7071 -0.7071 0.0000
vn 0.7071 -0.7071 0.0000
vn 0.7071 0.7071 0.0000
vn -0.7071 0.7071 0.0000
vn -0.3377 -0.3377 -0.8786
vn -0.4975 -0.4975 -0.7106
vn -0.6101 -0.6101 -0.5054
vn -0.1987 -0.1987 -0.9597
vn 0.4975 -0.4975 -0.7106
vn 0.6101 -0.6101 -0.5054
vn 0.1987 -0.1987 -0.9597
vn 0.3377 -0.3377 -0.8786
vn 0.4975 0.4975 -0.7106
vn 0.6101 0.6101 -0.5054
vn 0.1987 0.1987 -0.9597
vn -0.4975 0.4975 -0.7106
vn -0.6101 0.6101 -0.5054
vn -0.1987 0.1987 -0.9597
usemtl None
s off
f 5//1 7//1 6//1
f 5//1 8//1 7//1
f 4//2 8//2 5//2
f 3//1 1//1 4//1
f 1//3 8//3 4//3
f 3//1 2//1 1//1
f 15//4 13//4 14//4
f 16//4 13//4 15//4
f 16//5 12//5 13//5
f 9//4 11//4 12//4
f 16//2 9//2 12//2
f 10//4 11//4 9//4
s 1
f 18//6 21//7 20//8 17//8
f 19//9 22//9 21//7 18//6
f 21//7 24//10 23//11 20//8
f 22//9 25//12 24//10 21//7
f 24//10 27//13 26//11 23//11
f 25//12 28//12 27//13 24//10
f 27//13 30//10 29//11 26//11
f 28//12 31//12 30//10 27//13
f 30//10 33//14 32//15 29//11
f 31//12 34//16 33//14 30//10
f 33//14 36//17 35//18 32//15
f 34//16 37//19 36//17 33//14
f 36//17 39//7 38//8 35//18
f 37//19 40//9 39//7 36//17
f 39//7 18//6 17//8 38//8
f 40//9 19//9 18//6 39//7
f 42//20 44//20 43//20 41//20
f 44//20 46//21 45//21 43//20
f 46//21 48//21 47//21 45//21
f 48//21 50//21 49//21 47//21
f 50//21 52//22 51//22 49//21
f 52//22 54//23 53//23 51//22
f 54//23 56//20 55//20 53//23
f 56//20 42//20 41//20 55//20
f 58//24 61//25 60//26 57//26
f 59//27 62//27 61//25 58//24
f 61//25 64//28 63//29 60//26
f 62//27 65//30 64//28 61//25
f 64//28 67//31 66//29 63//29
f 65//30 68//30 67//31 64//28
f 67//31 70//28 69//29 66//29
f 68//30 71//30 70//28 67//31
f 70//28 73//32 72//33 69//29
f 71//30 74//34 73//32 70//28
f 73//32 76//35 75//36 72//33
f 74//34 77//37 76//35 73//32
f 76//35 79//25 78//26 75//36
f 77//37 80//27 79//25 76//35
f 79//25 58//24 57//26 78//26
f 80//27 59//27 58//24 79//25
