# Blender v2.79 (sub 0) OBJ File: 'alphanumeric_BASE.blend'
# www.blender.org
mtllib Y.mtl
o Text_Aasdf
v -0.302000 0.682000 -0.133000
v -0.049000 0.360000 -0.133000
v -0.049000 -0.000000 -0.133000
v 0.049000 -0.000000 -0.133000
v 0.049000 0.361000 -0.133000
v 0.302000 0.682000 -0.133000
v 0.184000 0.682000 -0.133000
v 0.001000 0.447000 -0.133000
v -0.184000 0.682000 -0.133000
v -0.302000 0.682000 0.133000
v -0.049000 0.360000 0.133000
v -0.049000 0.000000 0.133000
v 0.049000 0.000000 0.133000
v 0.049000 0.361000 0.133000
v 0.302000 0.682000 0.133000
v 0.184000 0.682000 0.133000
v 0.001000 0.447000 0.133000
v -0.184000 0.682000 0.133000
v -0.302000 0.682000 0.133000
v -0.328187 0.694728 0.127728
v -0.339034 0.700000 0.115000
v -0.049000 0.360000 0.133000
v -0.061728 0.355598 0.127728
v -0.067000 0.353774 0.115000
v -0.049000 0.000000 0.133000
v -0.061728 -0.012728 0.127728
v -0.067000 -0.018000 0.115000
v 0.049000 0.000000 0.133000
v 0.061728 -0.012728 0.127728
v 0.067000 -0.018000 0.115000
v 0.049000 0.361000 0.133000
v 0.061728 0.356587 0.127728
v 0.067000 0.354759 0.115000
v 0.302000 0.682000 0.133000
v 0.328238 0.694728 0.127728
v 0.339106 0.700000 0.115000
v 0.184000 0.682000 0.133000
v 0.177780 0.694728 0.127728
v 0.175203 0.700000 0.115000
v 0.001000 0.447000 0.133000
v 0.000946 0.467646 0.127728
v 0.000923 0.476198 0.115000
v -0.184000 0.682000 0.133000
v -0.177821 0.694728 0.127728
v -0.175262 0.700000 0.115000
v -0.339034 0.700000 0.115000
v -0.339034 0.700000 -0.115000
v -0.067000 0.353774 0.115000
v -0.067000 0.353774 -0.115000
v -0.067000 -0.018000 0.115000
v -0.067000 -0.018000 -0.115000
v 0.067000 -0.018000 0.115000
v 0.067000 -0.018000 -0.115000
v 0.067000 0.354759 0.115000
v 0.067000 0.354759 -0.115000
v 0.339106 0.700000 0.115000
v 0.339106 0.700000 -0.115000
v 0.175203 0.700000 0.115000
v 0.175203 0.700000 -0.115000
v 0.000923 0.476198 0.115000
v 0.000923 0.476198 -0.115000
v -0.175262 0.700000 0.115000
v -0.175262 0.700000 -0.115000
v -0.339034 0.700000 -0.115000
v -0.328187 0.694728 -0.127728
v -0.302000 0.682000 -0.133000
v -0.067000 0.353774 -0.115000
v -0.061728 0.355598 -0.127728
v -0.049000 0.360000 -0.133000
v -0.067000 -0.018000 -0.115000
v -0.061728 -0.012728 -0.127728
v -0.049000 -0.000000 -0.133000
v 0.067000 -0.018000 -0.115000
v 0.061728 -0.012728 -0.127728
v 0.049000 -0.000000 -0.133000
v 0.067000 0.354759 -0.115000
v 0.061728 0.356587 -0.127728
v 0.049000 0.361000 -0.133000
v 0.339106 0.700000 -0.115000
v 0.328238 0.694728 -0.127728
v 0.302000 0.682000 -0.133000
v 0.175203 0.700000 -0.115000
v 0.177780 0.694728 -0.127728
v 0.184000 0.682000 -0.133000
v 0.000923 0.476198 -0.115000
v 0.000945 0.467646 -0.127728
v 0.001000 0.447000 -0.133000
v -0.175262 0.700000 -0.115000
v -0.177821 0.694728 -0.127728
v -0.184000 0.682000 -0.133000
vn -0.0000 -0.0000 -1.0000
vn 0.0000 0.0000 1.0000
vn -0.5421 0.2635 0.7979
vn -0.6106 -0.2112 0.7632
vn -0.3445 -0.1191 0.9312
vn -0.1602 0.0779 0.9840
vn -0.6529 0.3173 0.6878
vn -0.8656 -0.2994 0.4014
vn -0.4975 -0.4975 0.7106
vn -0.1987 -0.1987 0.9597
vn -0.6101 -0.6101 0.5054
vn 0.4975 -0.4975 0.7106
vn 0.1987 -0.1987 0.9597
vn 0.6101 -0.6101 0.5054
vn 0.6102 -0.2116 0.7634
vn 0.3443 -0.1194 0.9312
vn 0.8653 -0.3000 0.4015
vn 0.5419 0.2629 0.7982
vn 0.1600 0.0776 0.9840
vn 0.6526 0.3166 0.6884
vn -0.3207 0.6562 0.6830
vn -0.1531 0.3133 0.9372
vn -0.3987 0.8159 0.4187
vn -0.0011 0.4118 0.9113
vn -0.0006 0.2474 0.9689
vn -0.0022 0.8300 0.5577
vn 0.3190 0.6571 0.6829
vn 0.1525 0.3141 0.9370
vn 0.3967 0.8171 0.4182
vn -0.8994 0.4371 0.0000
vn -0.9451 -0.3269 0.0000
vn -0.7071 -0.7071 0.0000
vn 0.7071 -0.7071 0.0000
vn 0.9448 -0.3276 0.0000
vn 0.8997 0.4364 0.0000
vn -0.4391 0.8984 0.0000
vn -0.0026 1.0000 0.0000
vn 0.4367 0.8996 0.0000
vn -0.5421 0.2634 -0.7979
vn -0.6106 -0.2112 -0.7632
vn -0.8656 -0.2994 -0.4014
vn -0.6529 0.3173 -0.6878
vn -0.1602 0.0779 -0.9840
vn -0.3445 -0.1191 -0.9312
vn -0.4975 -0.4975 -0.7106
vn -0.6101 -0.6101 -0.5054
vn -0.1987 -0.1987 -0.9597
vn 0.4975 -0.4975 -0.7106
vn 0.6101 -0.6101 -0.5054
vn 0.1987 -0.1987 -0.9597
vn 0.6102 -0.2116 -0.7634
vn 0.8653 -0.3000 -0.4015
vn 0.3443 -0.1194 -0.9312
vn 0.5419 0.2629 -0.7982
vn 0.6526 0.3166 -0.6884
vn 0.1600 0.0776 -0.9840
vn -0.3207 0.6562 -0.6830
vn -0.3987 0.8159 -0.4187
vn -0.1531 0.3133 -0.9372
vn -0.0011 0.4118 -0.9113
vn -0.0022 0.8300 -0.5577
vn -0.0006 0.2474 -0.9689
vn 0.3190 0.6571 -0.6829
vn 0.3967 0.8171 -0.4182
vn 0.1525 0.3141 -0.9370
usemtl None
s off
f 5//1 7//1 6//1
f 5//1 8//1 7//1
f 8//1 1//1 9//1
f 8//1 2//1 1//1
f 5//1 2//1 8//1
f 4//1 2//1 5//1
f 4//1 3//1 2//1
f 16//2 14//2 15//2
f 17//2 14//2 16//2
f 10//2 17//2 18//2
f 11//2 17//2 10//2
f 11//2 14//2 17//2
f 11//2 13//2 14//2
f 12//2 13//2 11//2
s 1
f 20//3 23//4 22//5 19//6
f 21//7 24//8 23//4 20//3
f 23//4 26//9 25//10 22//5
f 24//8 27//11 26//9 23//4
f 26//9 29//12 28//13 25//10
f 27//11 30//14 29//12 26//9
f 29//12 32//15 31//16 28//13
f 30//14 33//17 32//15 29//12
f 32//15 35//18 34//19 31//16
f 33//17 36//20 35//18 32//15
f 35//18 38//21 37//22 34//19
f 36//20 39//23 38//21 35//18
f 38//21 41//24 40//25 37//22
f 39//23 42//26 41//24 38//21
f 41//24 44//27 43//28 40//25
f 42//26 45//29 44//27 41//24
f 44//27 20//3 19//6 43//28
f 45//29 21//7 20//3 44//27
f 47//30 49//31 48//31 46//30
f 49//31 51//32 50//32 48//31
f 51//32 53//33 52//33 50//32
f 53//33 55//34 54//34 52//33
f 55//34 57//35 56//35 54//34
f 57//35 59//36 58//36 56//35
f 59//36 61//37 60//37 58//36
f 61//37 63//38 62//38 60//37
f 63//38 47//30 46//30 62//38
f 65//39 68//40 67//41 64//42
f 66//43 69//44 68//40 65//39
f 68//40 71//45 70//46 67//41
f 69//44 72//47 71//45 68//40
f 71//45 74//48 73//49 70//46
f 72//47 75//50 74//48 71//45
f 74//48 77//51 76//52 73//49
f 75//50 78//53 77//51 74//48
f 77//51 80//54 79//55 76//52
f 78//53 81//56 80//54 77//51
f 80//54 83//57 82//58 79//55
f 81//56 84//59 83//57 80//54
f 83//57 86//60 85//61 82//58
f 84//59 87//62 86//60 83//57
f 86//60 89//63 88//64 85//61
f 87//62 90//65 89//63 86//60
f 89//63 65//39 64//42 88//64
f 90//65 66//43 65//39 89//63
