# Blender v2.79 (sub 0) OBJ File: 'alphanumeric_BASE.blend'
# www.blender.org
mtllib Z.mtl
o Text_Aasdf
v 0.280000 0.682000 -0.133000
v -0.308000 0.682000 -0.133000
v 0.126000 0.088000 -0.133000
v -0.308000 0.088000 -0.133000
v -0.308000 -0.000000 -0.133000
v 0.307000 -0.000000 -0.133000
v -0.127000 0.594000 -0.133000
v 0.280000 0.594000 -0.133000
v 0.280000 0.682000 0.133000
v -0.308000 0.682000 0.133000
v 0.126000 0.088000 0.133000
v -0.308000 0.088000 0.133000
v -0.308000 0.000000 0.133000
v 0.307000 0.000000 0.133000
v -0.127000 0.594000 0.133000
v 0.280000 0.594000 0.133000
v 0.280000 0.682000 0.133000
v 0.292728 0.694728 0.127728
v 0.298000 0.700000 0.115000
v -0.308000 0.682000 0.133000
v -0.333063 0.694728 0.127728
v -0.343444 0.700000 0.115000
v 0.126000 0.088000 0.133000
v 0.100937 0.100728 0.127728
v 0.090556 0.106000 0.115000
v -0.308000 0.088000 0.133000
v -0.320728 0.100728 0.127728
v -0.326000 0.106000 0.115000
v -0.308000 0.000000 0.133000
v -0.320728 -0.012728 0.127728
v -0.326000 -0.018000 0.115000
v 0.307000 0.000000 0.133000
v 0.332063 -0.012728 0.127728
v 0.342444 -0.018000 0.115000
v -0.127000 0.594000 0.133000
v -0.101937 0.581272 0.127728
v -0.091556 0.576000 0.115000
v 0.280000 0.594000 0.133000
v 0.292728 0.581272 0.127728
v 0.298000 0.576000 0.115000
v 0.298000 0.700000 0.115000
v 0.298000 0.700000 -0.115000
v -0.343444 0.700000 0.115000
v -0.343444 0.700000 -0.115000
v 0.090556 0.106000 0.115000
v 0.090556 0.106000 -0.115000
v -0.326000 0.106000 0.115000
v -0.326000 0.106000 -0.115000
v -0.326000 -0.018000 0.115000
v -0.326000 -0.018000 -0.115000
v 0.342444 -0.018000 0.115000
v 0.342444 -0.018000 -0.115000
v -0.091556 0.576000 0.115000
v -0.091556 0.576000 -0.115000
v 0.298000 0.576000 0.115000
v 0.298000 0.576000 -0.115000
v 0.298000 0.700000 -0.115000
v 0.292728 0.694728 -0.127728
v 0.280000 0.682000 -0.133000
v -0.343444 0.700000 -0.115000
v -0.333063 0.694728 -0.127728
v -0.308000 0.682000 -0.133000
v 0.090556 0.106000 -0.115000
v 0.100937 0.100728 -0.127728
v 0.126000 0.088000 -0.133000
v -0.326000 0.106000 -0.115000
v -0.320728 0.100728 -0.127728
v -0.308000 0.088000 -0.133000
v -0.326000 -0.018000 -0.115000
v -0.320728 -0.012728 -0.127728
v -0.308000 -0.000000 -0.133000
v 0.342444 -0.018000 -0.115000
v 0.332063 -0.012728 -0.127728
v 0.307000 -0.000000 -0.133000
v -0.091556 0.576000 -0.115000
v -0.101937 0.581272 -0.127728
v -0.127000 0.594000 -0.133000
v 0.298000 0.576000 -0.115000
v 0.292728 0.581272 -0.127728
v 0.280000 0.594000 -0.133000
vn -0.0000 0.0000 -1.0000
vn 0.0000 0.0000 1.0000
vn 0.4975 0.4975 0.7106
vn -0.5452 0.2769 0.7913
vn -0.1643 0.0835 0.9828
vn 0.1987 0.1987 0.9597
vn 0.6101 0.6101 0.5054
vn -0.6579 0.3341 0.6749
vn -0.2580 0.1310 0.9572
vn -0.4975 0.4975 0.7106
vn -0.1987 0.1987 0.9597
vn -0.6101 0.6101 0.5054
vn -0.4975 -0.4975 0.7106
vn -0.1987 -0.1987 0.9597
vn -0.6101 -0.6101 0.5054
vn 0.5452 -0.2769 0.7913
vn 0.1643 -0.0835 0.9828
vn 0.6579 -0.3341 0.6749
vn 0.2580 -0.1310 0.9572
vn 0.4975 -0.4975 0.7106
vn 0.1987 -0.1987 0.9597
vn 0.6101 -0.6101 0.5054
vn 0.7071 0.7071 0.0000
vn -0.8916 0.4528 0.0000
vn -0.7071 0.7071 0.0000
vn -0.7071 -0.7071 0.0000
vn 0.8916 -0.4528 0.0000
vn 0.7071 -0.7071 0.0000
vn 0.4975 0.4975 -0.7106
vn -0.5452 0.2769 -0.7913
vn -0.6579 0.3341 -0.6749
vn 0.6101 0.6101 -0.5054
vn 0.1987 0.1987 -0.9597
vn -0.1643 0.0835 -0.9828
vn -0.2580 0.1310 -0.9572
vn -0.4975 0.4975 -0.7106
vn -0.6101 0.6101 -0.5054
vn -0.1987 0.1987 -0.9597
vn -0.4975 -0.4975 -0.7106
vn -0.6101 -0.6101 -0.5054
vn -0.1987 -0.1987 -0.9597
vn 0.5452 -0.2769 -0.7913
vn 0.6579 -0.3341 -0.6749
vn 0.1643 -0.0835 -0.9828
vn 0.2580 -0.1310 -0.9572
vn 0.4975 -0.4975 -0.7106
vn 0.6101 -0.6101 -0.5054
vn 0.1987 -0.1987 -0.9597
usemtl None
s off
f 8//1 2//1 1//1
f 8//1 7//1 2//1
f 7//1 3//1 2//1
f 6//1 3//1 7//1
f 6//1 4//1 3//1
f 6//1 5//1 4//1
f 10//2 16//2 9//2
f 15//2 16//2 10//2
f 11//2 15//2 10//2
f 11//2 14//2 15//2
f 12//2 14//2 11//2
f 13//2 14//2 12//2
s 1
f 18//3 21//4 20//5 17//6
f 19//7 22//8 21//4 18//3
f 21//4 24//9 23//5 20//5
f 22//8 25//8 24//9 21//4
f 24//9 27//10 26//11 23//5
f 25//8 28//12 27//10 24//9
f 27//10 30//13 29//14 26//11
f 28//12 31//15 30//13 27//10
f 30//13 33//16 32//17 29//14
f 31//15 34//18 33//16 30//13
f 33//16 36//19 35//17 32//17
f 34//18 37//18 36//19 33//16
f 36//19 39//20 38//21 35//17
f 37//18 40//22 39//20 36//19
f 39//20 18//3 17//6 38//21
f 40//22 19//7 18//3 39//20
f 42//23 44//24 43//24 41//23
f 44//24 46//24 45//24 43//24
f 46//24 48//25 47//25 45//24
f 48//25 50//26 49//26 47//25
f 50//26 52//27 51//27 49//26
f 52//27 54//27 53//27 51//27
f 54//27 56//28 55//28 53//27
f 56//28 42//23 41//23 55//28
f 58//29 61//30 60//31 57//32
f 59//33 62//34 61//30 58//29
f 61//30 64//35 63//31 60//31
f 62//34 65//34 64//35 61//30
f 64//35 67//36 66//37 63//31
f 65//34 68//38 67//36 64//35
f 67//36 70//39 69//40 66//37
f 68//38 71//41 70//39 67//36
f 70//39 73//42 72//43 69//40
f 71//41 74//44 73//42 70//39
f 73//42 76//45 75//43 72//43
f 74//44 77//44 76//45 73//42
f 76//45 79//46 78//47 75//43
f 77//44 80//48 79//46 76//45
f 79//46 58//29 57//32 78//47
f 80//48 59//33 58//29 79//46
